# xmcd
#
# Track frame offsets:
#	150
#	17260
#	32650
#	48867
#	70985
#	88717
#	109412
#	126870
#	149090
#	168382
#	185480
#
# Disc length: 2760 seconds
#
# Revision: 3
# Processed by: cddbd v1.5.2PL0 Copyright (c) Steve Scherf et al.
# Submitted via: EasyCDDAExtractor 15.3.0.1
#
DISCID=970ac60b
DTITLE=Chayanne - Volver A Nacer
DYEAR=1996
DGENRE=Latin
TTITLE0=Solo Traigo Mi Ritmo
TTITLE1=Solamente Tu Amor
TTITLE2=Pequeña Flor (Petite Fleur)
TTITLE3=Volver A Nacer
TTITLE4=Voy A Enseñarte
TTITLE5=Tal Vez Es Amor (Talvez Seja Amor)
TTITLE6=Baila Baila
TTITLE7=Solo Pienso En Ti
TTITLE8=Ramito De Flores
TTITLE9=Entre Mis Recuerdos
TTITLE10=Guajira
EXTD=
EXTT0=
EXTT1=
EXTT2=
EXTT3=
EXTT4=
EXTT5=
EXTT6=
EXTT7=
EXTT8=
EXTT9=
EXTT10=
PLAYORDER=
